<svg xmlns="http://www.w3.org/2000/svg" width="24.298" height="21.496" viewBox="0 0 24.298 21.496"><defs><style>.a{fill:#c72c1c;}</style></defs><g transform="translate(0 -29.519)"><g transform="translate(0 29.519)"><path class="a" d="M24.066,48.449,13.63,30.374a1.711,1.711,0,0,0-2.963,0L.232,48.449a1.711,1.711,0,0,0,1.481,2.566H22.584a1.711,1.711,0,0,0,1.481-2.566Zm-1.234,1a.276.276,0,0,1-.247.143H1.713a.285.285,0,0,1-.247-.428L11.9,31.087a.285.285,0,0,1,.494,0L22.831,49.162A.276.276,0,0,1,22.831,49.447Z" transform="translate(0 -29.519)"/><rect class="a" width="1.425" height="7.602" transform="translate(11.436 6.481)"/><circle class="a" cx="0.95" cy="0.95" r="0.95" transform="translate(11.199 15.509)"/></g></g></svg>