<svg xmlns="http://www.w3.org/2000/svg" width="59.845" height="51.312" viewBox="0 0 59.845 51.312"><defs><style>.a{fill:#292878;}</style></defs><path class="a" d="M37.157,15.312A7.013,7.013,0,1,0,44.17,8.3,7.021,7.021,0,0,0,37.157,15.312Zm9.351,0a2.338,2.338,0,1,1-2.338-2.338A2.34,2.34,0,0,1,46.508,15.312ZM37.4,46.637l-.273,4.676H7.013A6.986,6.986,0,0,1,0,44.341V6.937A6.957,6.957,0,0,1,7.013,0H52.778a7,7,0,0,1,7.067,6.937V29.718H55.169V6.937a2.324,2.324,0,0,0-2.392-2.262H7.013A2.277,2.277,0,0,0,4.675,6.937v17.71l9.713-14.2,7.757,9.7L25.661,15.1,39.367,32.872,36.036,36.2,25.851,23.01l-14.472,20.8L7.54,41.143,19.361,24.151,14.682,18.3,4.675,32.927V44.341a2.305,2.305,0,0,0,2.338,2.3Zm0,0"/></svg>