<svg height="23.412" viewBox="0 0 22.292 23.412" width="22.292" xmlns="http://www.w3.org/2000/svg"><path d="m79.558 5.2a4.509 4.509 0 0 0 -1.745.4l.194-2.6h6.2v-3h-8.913l-1.163 9.4 2.908 1a2.478 2.478 0 0 1 2.326-2 2.237 2.237 0 0 1 2.132 2.4c0 1-.388 2-1.745 3.4l-6.009 7.2v2h10.467l.388-3h-5.815l3.489-4.4a6.712 6.712 0 0 0 2.52-5.2 5.35 5.35 0 0 0 -5.234-5.6m-8.723 18.212h2.326v-2l-5.815-7.2c-1.357-1.6-1.745-2.6-1.745-3.4a2.373 2.373 0 0 1 2.132-2.4 2.478 2.478 0 0 1 2.326 2l3.1-1a5.81 5.81 0 0 0 -5.234-4.2 5.383 5.383 0 0 0 -5.428 5.6 7.885 7.885 0 0 0 2.132 5.2l3.3 4z" fill="#fff" transform="translate(-62.5)"/></svg>