<svg id="Logo" xmlns="http://www.w3.org/2000/svg" xmlns:xlink="http://www.w3.org/1999/xlink" width="246.757" height="38.936" viewBox="0 0 246.757 38.936">
  <defs>
    <clipPath id="clip-path">
      <rect id="Rechteck_48" data-name="Rechteck 48" width="246.757" height="38.27" fill="#fff"/>
    </clipPath>
  </defs>
  <g id="Gruppe_89" data-name="Gruppe 89">
    <g id="Gruppe_87" data-name="Gruppe 87" clip-path="url(#clip-path)">
      <path id="Pfad_14" data-name="Pfad 14" d="M91.844,8.652a7.977,7.977,0,0,0-3,.666l.333-4.326H99.847V0H84.508l-2,15.641h0l5,1.664c.667-2,2-3.328,4-3.328a3.768,3.768,0,0,1,3.668,3.993c0,1.664-.667,3.328-3,5.657L81.84,35.608v3.328H99.847l.667-4.992h-10l6-7.321c2.668-2.329,4.335-4.992,4.335-8.652a9.035,9.035,0,0,0-9-9.318M76.839,38.936h4V35.608l-10-11.98c-2.334-2.662-3-4.326-3-5.657A4,4,0,0,1,71.5,13.977c2,0,3.335,1.331,4,3.328l5.335-1.664c-1.334-3.993-5-6.989-9-6.989A9.1,9.1,0,0,0,62.5,17.97c0,3.661,1.667,6.323,3.668,8.652l5.669,6.656Z" transform="translate(145.91 -0.333)" fill="#fff"/>
    </g>
    <g id="Gruppe_88" data-name="Gruppe 88" clip-path="url(#clip-path)">
      <path id="Pfad_15" data-name="Pfad 15" d="M0,8.752a3.624,3.624,0,0,0,3,1.331A3.425,3.425,0,0,0,6.669,6.756,3.025,3.025,0,0,0,5.335,4.093,3.179,3.179,0,0,0,3,3.428H2.334V1.764H6V.1H1L.333,5.425l1,.333a2.53,2.53,0,0,1,1.334-.666A2.008,2.008,0,0,1,4,5.425a1.728,1.728,0,0,1,.667,1.331A2.521,2.521,0,0,1,4,8.087c-.333,0-.667.333-1,.333a2.55,2.55,0,0,1-1.667-.666Zm12-5.99c.333-.666.667-1,1.334-1A1.433,1.433,0,0,1,14.672,3.1c0,.666-.333,1-1,2L10.337,9.085v.666h6.336V8.087H13.338l2-2.33A4.105,4.105,0,0,0,16.673,3.1a3.063,3.063,0,0,0-3.335-3,3.2,3.2,0,0,0-3,2.33Z" transform="translate(0 -0.1)" fill="#fff"/>
    </g>
  </g>
  <rect id="Rechteck_50" data-name="Rechteck 50" width="16.673" height="2.995" transform="translate(0 14.31)" fill="#fff"/>
  <path id="Pfad_16" data-name="Pfad 16" d="M2.334,6.933H0V23.572H3.335V14.254l4,6.656H9.67l4-6.656v9.318h3.335V6.933H14.339l-6,9.984ZM37.681,9.6V6.933h-10V23.572H38.014v-3h-7V15.918h5V13.256h-5V9.928h6.669ZM50.352,6.933H48.018V23.572h3.335V14.254l4,6.656h2.334l4-6.656v9.318h3.335V6.933H62.69l-6,9.984ZM77.7,15.252a5.344,5.344,0,1,1,10.671,0,5.344,5.344,0,1,1-10.671,0m-3.335,0a8.6,8.6,0,0,0,8.67,8.652,8.4,8.4,0,0,0,8.67-8.652,8.67,8.67,0,0,0-17.34,0m31.678,1,6,7.321h4l-6.336-7.654a7.292,7.292,0,0,0,1.667-1,4.268,4.268,0,0,0,1.334-3.328,5.079,5.079,0,0,0-1.334-3.328,5.338,5.338,0,0,0-3.668-1.331h-6V23.572h3.335V16.251Zm-1.334-3V9.6h2.668a1.961,1.961,0,0,1,1.667.666c.333.333.333.666.333,1.331,0,.333-.333,1-.333,1.331-.333.333-.667.333-1.667.333h-2.668Zm20.007,10.316h3.335V6.933h-3.335ZM148.721,9.6V6.933h-10V23.572h10.337v-3h-7V15.918h5V13.256h-5V9.928h6.669Zm9,11.648a8.045,8.045,0,0,0,6,2.33c3,0,5.669-2,5.669-4.992,0-5.657-7.669-4.659-7.669-7.321,0-1.331,1.334-1.664,2.668-1.664a4.661,4.661,0,0,1,3,1l1.667-2.33A8.861,8.861,0,0,0,164.394,6.6c-2.668,0-5.335,1.664-5.335,4.659a3.745,3.745,0,0,0,2.334,3.661c2.334,1.331,5.335,1.664,5.335,3.661,0,1.331-1,2-2.334,2a5.528,5.528,0,0,1-4-1.664Z" transform="translate(0 15.031)" fill="#fff"/>
</svg>
